<svg width="98" height="31" viewBox="0 0 98 31" fill="none" xmlns="http://www.w3.org/2000/svg">
<g clip-path="url(#clip0_436_656)">
<path d="M2.39806 27.7508C2.13275 27.6442 1.83774 27.5838 1.54272 27.5838C1.24771 27.5838 0.879967 27.7006 0.879967 28.1257C0.879967 28.8007 2.7238 28.516 2.7238 29.823C2.7238 30.6773 1.99446 31.001 1.14527 31.001C0.687389 31.001 0.482518 30.9457 0.0666307 30.8505L0.144482 30.1467C0.433349 30.2922 0.76524 30.3864 1.09611 30.3864C1.42697 30.3864 1.84286 30.2359 1.84286 29.8845C1.84286 29.1418 -0.000976562 29.4491 -0.000976562 28.1595C-0.000976562 27.2888 0.728363 26.9702 1.46897 26.9702C1.83057 26.9702 2.16758 27.0153 2.47488 27.1095L2.39703 27.7518L2.39806 27.7508Z" fill="#1D1D1B"/>
<path d="M5.63317 30.7715C5.33815 30.9221 5.00012 30.9999 4.56682 30.9999C3.54246 30.9999 2.94629 30.4529 2.94629 29.5095C2.94629 28.6777 3.42261 27.9904 4.38653 27.9904C5.53688 27.9904 5.86262 28.7217 5.86262 29.7266H3.71763C3.75348 30.1896 4.10278 30.4529 4.60369 30.4529C4.995 30.4529 5.33303 30.3187 5.63419 30.163V30.7715H5.63317ZM5.09128 29.2134C5.0667 28.8508 4.88641 28.5384 4.43467 28.5384C3.98293 28.5384 3.75348 28.8283 3.71763 29.2134H5.09128Z" fill="#1D1D1B"/>
<path d="M8.23594 28.6778C8.09151 28.6163 7.93479 28.5712 7.68792 28.5712C7.18803 28.5712 6.86843 28.94 6.86843 29.4809C6.86843 30.0217 7.13989 30.4192 7.70635 30.4192C7.93581 30.4192 8.1878 30.3413 8.32711 30.285L8.36296 30.9047C8.12839 30.9723 7.88664 31 7.55577 31C6.53757 31 6.02539 30.3577 6.02539 29.4819C6.02539 28.6061 6.55601 27.9915 7.52504 27.9915C7.85079 27.9915 8.08536 28.0253 8.30867 28.0867L8.23594 28.6788V28.6778Z" fill="#1D1D1B"/>
<path d="M8.64551 28.058H9.36256V28.7116H9.37485C9.4107 28.4442 9.74259 27.9915 10.224 27.9915C10.3019 27.9915 10.3869 27.9915 10.4709 28.014V28.7679C10.3982 28.729 10.2537 28.7065 10.1093 28.7065C9.4527 28.7065 9.4527 29.4655 9.4527 29.8783V30.9334H8.64551V28.058Z" fill="#1D1D1B"/>
<path d="M13.0814 30.7715C12.7864 30.9221 12.4494 30.9999 12.0151 30.9999C10.9907 30.9999 10.3945 30.4529 10.3945 29.5095C10.3945 28.6777 10.8709 27.9904 11.8348 27.9904C12.9851 27.9904 13.3109 28.7217 13.3109 29.7266H11.1659C11.2017 30.1896 11.551 30.4529 12.0519 30.4529C12.4432 30.4529 12.7813 30.3187 13.0824 30.163V30.7715H13.0814ZM12.5395 29.2134C12.5149 28.8508 12.3347 28.5384 11.8829 28.5384C11.4312 28.5384 11.2017 28.8283 11.1659 29.2134H12.5395Z" fill="#1D1D1B"/>
<path d="M13.936 28.605H13.3398V28.058H13.936V27.4834L14.7432 27.2437V28.059H15.4603V28.606H14.7432V29.9459C14.7432 30.1917 14.8159 30.4202 15.1232 30.4202C15.2677 30.4202 15.406 30.3925 15.491 30.3423L15.5156 30.9344C15.3466 30.9795 15.1601 31.001 14.9194 31.001C14.2874 31.001 13.937 30.6384 13.937 30.0688V28.606L13.936 28.605Z" fill="#1D1D1B"/>
<path d="M15.8819 28.2085C16.1954 28.0744 16.6174 27.9904 16.9606 27.9904C17.9061 27.9904 18.2984 28.353 18.2984 29.2022V29.5709C18.2984 29.8608 18.3045 30.079 18.3107 30.2911C18.3168 30.5092 18.3291 30.71 18.3465 30.9333H17.6356C17.6059 30.7827 17.6059 30.5932 17.5998 30.5031H17.5875C17.4 30.8217 16.9975 30.9999 16.6297 30.9999C16.0817 30.9999 15.5449 30.6926 15.5449 30.1456C15.5449 29.7154 15.7682 29.4644 16.0745 29.3251C16.3818 29.1858 16.7793 29.1571 17.1163 29.1571H17.5619C17.5619 28.6941 17.3386 28.5374 16.8633 28.5374C16.5201 28.5374 16.1759 28.6603 15.9055 28.8498L15.8809 28.2075L15.8819 28.2085ZM16.8284 30.4529C17.0753 30.4529 17.2679 30.3525 17.3949 30.1958C17.527 30.0339 17.5639 29.827 17.5639 29.6037H17.2146C16.853 29.6037 16.3173 29.6601 16.3173 30.1005C16.3173 30.3464 16.5406 30.4519 16.8295 30.4519L16.8284 30.4529Z" fill="#1D1D1B"/>
<path d="M18.8398 28.058H19.5569V28.7116H19.5692C19.605 28.4442 19.9369 27.9915 20.4184 27.9915C20.4962 27.9915 20.5812 27.9915 20.6652 28.014V28.7679C20.5925 28.729 20.4481 28.7065 20.3036 28.7065C19.647 28.7065 19.647 29.4655 19.647 29.8783V30.9334H18.8398V28.058Z" fill="#1D1D1B"/>
<path d="M20.9121 26.8186H21.7193V27.5336H20.9121V26.8186ZM20.9121 28.0581H21.7193V30.9334H20.9121V28.0581Z" fill="#1D1D1B"/>
<path d="M22.4366 28.2085C22.7501 28.0744 23.1721 27.9904 23.5153 27.9904C24.4607 27.9904 24.8531 28.353 24.8531 29.2022V29.5709C24.8531 29.8608 24.8592 30.079 24.8654 30.2911C24.8715 30.5092 24.8838 30.71 24.9012 30.9333H24.1903C24.1606 30.7827 24.1606 30.5932 24.1545 30.5031H24.1422C23.9557 30.8217 23.5521 30.9999 23.1844 30.9999C22.6364 30.9999 22.0996 30.6926 22.0996 30.1456C22.0996 29.7154 22.3229 29.4644 22.6302 29.3251C22.9375 29.1858 23.335 29.1571 23.672 29.1571H24.1176C24.1176 28.6941 23.8943 28.5374 23.419 28.5374C23.0758 28.5374 22.7327 28.6603 22.4612 28.8498L22.4366 28.2075V28.2085ZM23.3821 30.4529C23.629 30.4529 23.8215 30.3525 23.9486 30.1958C24.0807 30.0339 24.1176 29.827 24.1176 29.6037H23.7683C23.4067 29.6037 22.8709 29.6601 22.8709 30.1005C22.8709 30.3464 23.0932 30.4519 23.3831 30.4519L23.3821 30.4529Z" fill="#1D1D1B"/>
<path d="M28.8469 30.6087H28.8346C28.5939 30.8883 28.262 30.9989 27.883 30.9989C26.9313 30.9989 26.582 30.2737 26.582 29.486C26.582 28.6982 26.9313 27.9894 27.883 27.9894C28.2866 27.9894 28.5703 28.1174 28.811 28.3909H28.8233V26.7438H29.6305V30.9303H28.8469V30.6066V30.6087ZM28.1063 30.4192C28.642 30.4192 28.8172 29.8947 28.8172 29.487C28.8172 29.0793 28.6123 28.5712 28.094 28.5712C27.5757 28.5712 27.4251 29.1018 27.4251 29.487C27.4251 29.8721 27.5757 30.4192 28.1063 30.4192Z" fill="#1D1D1B"/>
<path d="M32.6791 30.7715C32.3841 30.9221 32.047 30.9999 31.6127 30.9999C30.5884 30.9999 29.9922 30.4529 29.9922 29.5095C29.9922 28.6777 30.4685 27.9904 31.4324 27.9904C32.5828 27.9904 32.9085 28.7217 32.9085 29.7266H30.7635C30.7994 30.1896 31.1487 30.4529 31.6496 30.4529C32.0409 30.4529 32.3789 30.3187 32.6801 30.163V30.7715H32.6791ZM32.1372 29.2134C32.1126 28.8508 31.9323 28.5384 31.4806 28.5384C31.0288 28.5384 30.7994 28.8283 30.7635 29.2134H32.1372Z" fill="#1D1D1B"/>
<path d="M34.7452 27.0367H37.2272V27.6514H35.5882V28.6112H37.0879V29.2258H35.5882V30.3198H37.2384V30.9334H34.7441V27.0367H34.7452Z" fill="#1D1D1B"/>
<path d="M39.5953 28.6613C39.3485 28.5835 39.1672 28.5384 38.8722 28.5384C38.655 28.5384 38.3958 28.6111 38.3958 28.857C38.3958 29.3148 39.7992 29.0239 39.7992 30.0626C39.7992 30.7326 39.1549 30.9999 38.4983 30.9999C38.191 30.9999 37.8775 30.9497 37.5825 30.877L37.6306 30.2624C37.8836 30.3791 38.149 30.4519 38.4255 30.4519C38.6304 30.4519 38.9551 30.3791 38.9551 30.1005C38.9551 29.5371 37.5518 29.9223 37.5518 28.8836C37.5518 28.2639 38.1356 27.9904 38.7687 27.9904C39.1487 27.9904 39.3956 28.0467 39.6486 28.0969L39.5943 28.6603L39.5953 28.6613Z" fill="#1D1D1B"/>
<path d="M40.4204 28.605H39.8242V28.058H40.4204V27.4834L41.2276 27.2437V28.059H41.9446V28.606H41.2276V29.9459C41.2276 30.1917 41.3003 30.4202 41.6076 30.4202C41.7521 30.4202 41.8903 30.3925 41.9754 30.3423L41.9999 30.9344C41.8309 30.9795 41.6445 31.001 41.4038 31.001C40.7717 31.001 40.4214 30.6384 40.4214 30.0688V28.606L40.4204 28.605Z" fill="#1D1D1B"/>
<path d="M42.3663 28.2085C42.6798 28.0744 43.1008 27.9904 43.445 27.9904C44.3904 27.9904 44.7828 28.353 44.7828 29.2022V29.5709C44.7828 29.8608 44.7889 30.079 44.7951 30.2911C44.8012 30.5092 44.8135 30.71 44.8309 30.9333H44.12C44.0903 30.7827 44.0903 30.5932 44.0841 30.5031H44.0719C43.8854 30.8217 43.4818 30.9999 43.1141 30.9999C42.5661 30.9999 42.0293 30.6926 42.0293 30.1456C42.0293 29.7154 42.2526 29.4644 42.5599 29.3251C42.8672 29.1858 43.2647 29.1571 43.6017 29.1571H44.0473C44.0473 28.6941 43.824 28.5374 43.3487 28.5374C43.0055 28.5374 42.6623 28.6603 42.3909 28.8498L42.3673 28.2075L42.3663 28.2085ZM43.3118 30.4529C43.5587 30.4529 43.7512 30.3525 43.8783 30.1958C44.0104 30.0339 44.0473 29.827 44.0473 29.6037H43.698C43.3364 29.6037 42.8006 29.6601 42.8006 30.1005C42.8006 30.3464 43.0239 30.4519 43.3128 30.4519L43.3118 30.4529Z" fill="#1D1D1B"/>
<path d="M47.3732 30.6087H47.361C47.1202 30.8883 46.7883 30.9989 46.4093 30.9989C45.4577 30.9989 45.1084 30.2737 45.1084 29.486C45.1084 28.6982 45.4577 27.9894 46.4093 27.9894C46.8129 27.9894 47.0967 28.1174 47.3374 28.3909H47.3497V26.7438H48.1569V30.9303H47.3732V30.6066V30.6087ZM46.6326 30.4192C47.1684 30.4192 47.3435 29.8947 47.3435 29.487C47.3435 29.0793 47.1387 28.5712 46.6203 28.5712C46.102 28.5712 45.9514 29.1018 45.9514 29.487C45.9514 29.8721 46.102 30.4192 46.6326 30.4192Z" fill="#1D1D1B"/>
<path d="M50.1381 27.9904C51.06 27.9904 51.7648 28.566 51.7648 29.5146C51.7648 30.3412 51.1686 30.9999 50.1381 30.9999C49.1076 30.9999 48.5176 30.3412 48.5176 29.5146C48.5176 28.566 49.2223 27.9904 50.1381 27.9904ZM50.1381 30.4191C50.7589 30.4191 50.9207 29.9049 50.9207 29.4255C50.9207 28.985 50.6677 28.5712 50.1381 28.5712C49.6085 28.5712 49.3606 28.9952 49.3606 29.4255C49.3606 29.8998 49.5235 30.4191 50.1381 30.4191Z" fill="#1D1D1B"/>
<path d="M55.5969 30.6087H55.5846C55.3439 30.8883 55.012 30.9989 54.633 30.9989C53.6813 30.9989 53.332 30.2737 53.332 29.486C53.332 28.6982 53.6813 27.9894 54.633 27.9894C55.0366 27.9894 55.3203 28.1174 55.561 28.3909H55.5733V26.7438H56.3805V30.9303H55.5969V30.6066V30.6087ZM54.8563 30.4192C55.392 30.4192 55.5672 29.8947 55.5672 29.487C55.5672 29.0793 55.3623 28.5712 54.844 28.5712C54.3257 28.5712 54.1751 29.1018 54.1751 29.487C54.1751 29.8721 54.3257 30.4192 54.8563 30.4192Z" fill="#1D1D1B"/>
<path d="M59.4281 30.7715C59.1331 30.9221 58.7961 30.9999 58.3617 30.9999C57.3374 30.9999 56.7412 30.4529 56.7412 29.5095C56.7412 28.6777 57.2175 27.9904 58.1815 27.9904C59.3318 27.9904 59.6575 28.7217 59.6575 29.7266H57.5126C57.5484 30.1896 57.8977 30.4529 58.3976 30.4529C58.7889 30.4529 59.1269 30.3187 59.4281 30.163V30.7715ZM58.8862 29.2134C58.8616 28.8508 58.6813 28.5384 58.2296 28.5384C57.7779 28.5384 57.5484 28.8283 57.5126 29.2134H58.8862Z" fill="#1D1D1B"/>
<path d="M61.4951 27.0367H63.8327V27.6514H62.3382V28.6112H63.76V29.2258H62.3382V30.9344H61.4951V27.0378V27.0367Z" fill="#1D1D1B"/>
<path d="M64.3018 28.2085C64.6153 28.0744 65.0373 27.9904 65.3805 27.9904C66.3259 27.9904 66.7183 28.353 66.7183 29.2022V29.5709C66.7183 29.8608 66.7244 30.079 66.7305 30.2911C66.7367 30.5092 66.748 30.71 66.7664 30.9333H66.0555C66.0258 30.7827 66.0258 30.5932 66.0196 30.5031H66.0074C65.8209 30.8217 65.4173 30.9999 65.0496 30.9999C64.5016 30.9999 63.9658 30.6926 63.9658 30.1456C63.9658 29.7154 64.1881 29.4644 64.4954 29.3251C64.8027 29.1858 65.2002 29.1571 65.5372 29.1571H65.9828C65.9828 28.6941 65.7595 28.5374 65.2842 28.5374C64.941 28.5374 64.5978 28.6603 64.3264 28.8498L64.3018 28.2075V28.2085ZM65.2473 30.4529C65.4942 30.4529 65.6867 30.3525 65.8138 30.1958C65.9459 30.0339 65.9828 29.827 65.9828 29.6037H65.6335C65.2719 29.6037 64.7361 29.6601 64.7361 30.1005C64.7361 30.3464 64.9584 30.4519 65.2483 30.4519L65.2473 30.4529Z" fill="#1D1D1B"/>
<path d="M67.1096 28.058H69.568V28.6726L68.0253 30.3525H69.6213V30.9333H67.043V30.3249L68.6154 28.6388H67.1096V28.058Z" fill="#1D1D1B"/>
<path d="M72.472 30.7715C72.177 30.9221 71.84 30.9999 71.4057 30.9999C70.3813 30.9999 69.7852 30.4529 69.7852 29.5095C69.7852 28.6777 70.2615 27.9904 71.2254 27.9904C72.3757 27.9904 72.7015 28.7217 72.7015 29.7266H70.5565C70.5923 30.1896 70.9416 30.4529 71.4415 30.4529C71.8328 30.4529 72.1709 30.3187 72.472 30.163V30.7715ZM71.9302 29.2134C71.9056 28.8508 71.7253 28.5384 71.2735 28.5384C70.8218 28.5384 70.5923 28.8283 70.5565 29.2134H71.9302Z" fill="#1D1D1B"/>
<path d="M73.0625 28.058H73.8277V28.4482H73.84C74.093 28.1194 74.4362 27.9904 74.8582 27.9904C75.5927 27.9904 75.9123 28.4708 75.9123 29.1182V30.9323H75.1051V29.3968C75.1051 29.0454 75.0989 28.5701 74.5806 28.5701C73.9967 28.5701 73.8697 29.1561 73.8697 29.5248V30.9313H73.0625V28.0559V28.058Z" fill="#1D1D1B"/>
<path d="M78.5383 30.6087H78.526C78.2853 30.8883 77.9534 30.9989 77.5744 30.9989C76.6227 30.9989 76.2734 30.2737 76.2734 29.486C76.2734 28.6982 76.6227 27.9894 77.5744 27.9894C77.978 27.9894 78.2617 28.1174 78.5024 28.3909H78.5147V26.7438H79.3219V30.9303H78.5383V30.6066V30.6087ZM77.7977 30.4192C78.3334 30.4192 78.5086 29.8947 78.5086 29.487C78.5086 29.0793 78.3037 28.5712 77.7854 28.5712C77.2671 28.5712 77.1165 29.1018 77.1165 29.487C77.1165 29.8721 77.2671 30.4192 77.7977 30.4192Z" fill="#1D1D1B"/>
<path d="M80.0206 28.2085C80.3341 28.0744 80.7561 27.9904 81.0993 27.9904C82.0447 27.9904 82.4371 28.353 82.4371 29.2022V29.5709C82.4371 29.8608 82.4432 30.079 82.4493 30.2911C82.4555 30.5092 82.4678 30.71 82.4852 30.9333H81.7743C81.7446 30.7827 81.7446 30.5932 81.7384 30.5031H81.7262C81.5387 30.8217 81.1361 30.9999 80.7684 30.9999C80.2204 30.9999 79.6836 30.6926 79.6836 30.1456C79.6836 29.7154 79.9069 29.4644 80.2142 29.3251C80.5215 29.1858 80.919 29.1571 81.256 29.1571H81.7016C81.7016 28.6941 81.4783 28.5374 81.003 28.5374C80.6598 28.5374 80.3166 28.6603 80.0452 28.8498L80.0206 28.2075V28.2085ZM80.9671 30.4529C81.214 30.4529 81.4066 30.3525 81.5336 30.1958C81.6657 30.0339 81.7026 29.827 81.7026 29.6037H81.3533C80.9917 29.6037 80.456 29.6601 80.456 30.1005C80.456 30.3464 80.6793 30.4519 80.9681 30.4519L80.9671 30.4529Z" fill="#1D1D1B"/>
<path d="M69.7539 23.9412L83.5704 0.0102539L97.3869 23.9412H69.7539Z" fill="#D20A11"/>
<path d="M26.1992 10.6789C25.8786 10.2661 25.4596 9.9352 24.9433 9.68731C24.427 9.43941 23.8483 9.31444 23.207 9.31444H12.3561C11.9217 9.31444 11.5806 9.16386 11.3327 8.86168C11.0848 8.56052 11.0131 8.19073 11.1166 7.75435L11.4577 6.19426C11.5612 5.75789 11.7937 5.38912 12.1553 5.08694C12.5169 4.78578 12.9143 4.63417 13.3497 4.63417H28.8523L29.811 0H9.65792C9.01668 0 8.3867 0.123947 7.76697 0.372865C7.14723 0.620758 6.58384 0.952648 6.07781 1.36649C5.57178 1.78033 5.13643 2.27202 4.77586 2.84156C4.41324 3.4111 4.17046 4.01649 4.04754 4.65773L3.05494 9.31547C2.91051 9.95466 2.89924 10.557 3.02421 11.1235C3.14816 11.6909 3.37557 12.1796 3.70643 12.5913C4.0373 13.0042 4.46036 13.334 4.97765 13.5809C5.49393 13.8277 6.07269 13.9517 6.71393 13.9517H17.5659C18.0003 13.9517 18.3352 14.1023 18.5739 14.4045C18.8115 14.7066 18.8792 15.0754 18.7757 15.5118L18.4653 17.0719C18.3619 17.5082 18.1293 17.878 17.7677 18.1792C17.4051 18.4814 17.0077 18.632 16.5744 18.632H1.06975L0.0771484 23.2651H20.2303C20.8715 23.2651 21.5015 23.1412 22.1212 22.8933C22.741 22.6454 23.3054 22.3145 23.8114 21.9017C24.3174 21.4889 24.7518 20.9972 25.1134 20.4287C25.475 19.8602 25.729 19.2558 25.8734 18.6156L26.865 13.965C26.989 13.3248 26.989 12.7204 26.865 12.1519C26.7411 11.5834 26.5188 11.0927 26.1992 10.6799V10.6789Z" fill="#4D4D4D"/>
<path d="M37.8428 13.9507H53.3761L54.3687 9.31445H38.8354L37.8428 13.9507Z" fill="#4D4D4D"/>
<path d="M35.8741 18.1791C35.6365 17.878 35.5689 17.5102 35.6723 17.0749L36.3238 13.965L37.9669 6.19012C38.0704 5.75477 38.3029 5.38703 38.6645 5.08689C39.0261 4.78573 39.4235 4.63617 39.8589 4.63617H55.3614L56.3223 0.000976562H36.1692C35.5279 0.000976562 34.8979 0.124923 34.2782 0.373841C33.6585 0.621735 33.0951 0.953625 32.589 1.36746C32.083 1.7813 31.6477 2.27299 31.2871 2.84253C30.9245 3.41207 30.6817 4.01747 30.5588 4.65871L27.582 18.6309C27.4376 19.2701 27.4263 19.8724 27.5503 20.4389C27.6742 21.0064 27.9016 21.495 28.2325 21.9068C28.5633 22.3196 28.9874 22.6494 29.5037 22.8963C30.02 23.1432 30.5987 23.2671 31.241 23.2671H51.3941L52.3857 18.6319H36.8831C36.4488 18.6319 36.1128 18.4824 35.8752 18.1812L35.8741 18.1791Z" fill="#4D4D4D"/>
<path d="M65.308 9.31445L64.3154 13.9507H74.6173L77.295 9.31445H65.308Z" fill="#4D4D4D"/>
<path d="M62.6413 0C62 0 61.3701 0.123947 60.7503 0.372865C60.1306 0.620758 59.5672 0.951624 59.0612 1.36546C58.5551 1.7793 58.1208 2.26997 57.7592 2.83848C57.3966 3.40802 57.1538 4.01239 57.0309 4.65364L53.0615 23.2651H60.8128L64.44 6.18812C64.5435 5.75379 64.776 5.38605 65.1376 5.08591C65.4992 4.78578 65.8967 4.6352 66.332 4.6352H80.001L82.6776 0H62.6413Z" fill="#4D4D4D"/>
</g>
<defs>
<clipPath id="clip0_436_656">
<rect width="97.3873" height="31" fill="white"/>
</clipPath>
</defs>
</svg>
